<mxfile host="app.diagrams.net" modified="2023-02-22T13:24:07.568Z" agent="5.0 (Macintosh; Intel Mac OS X 10_15_7) AppleWebKit/537.36 (KHTML, like Gecko) Chrome/108.0.0.0 Safari/537.36 Edg/108.0.1462.76" etag="ILqf_OxETEBlTckJWnnA" version="20.8.5" type="github">
  <diagram name="第 1 页" id="-vlab-wln1I7YojuGcyD">
    <mxGraphModel dx="1246" dy="569" grid="1" gridSize="10" guides="1" tooltips="1" connect="1" arrows="1" fold="1" page="0" pageScale="1" pageWidth="827" pageHeight="1169" math="0" shadow="0">
      <root>
        <mxCell id="0" />
        <mxCell id="1" parent="0" />
        <mxCell id="_8QWbkuz8nYEIBeXIv_E-8" value="" style="rounded=0;whiteSpace=wrap;html=1;sketch=1;hachureGap=4;jiggle=2;curveFitting=1;strokeColor=none;strokeWidth=1;fontFamily=Comic Sans MS;fontSize=18;fillColor=#cce5ff;" vertex="1" parent="1">
          <mxGeometry x="-50" y="160" width="920" height="780" as="geometry" />
        </mxCell>
        <mxCell id="_8QWbkuz8nYEIBeXIv_E-11" style="edgeStyle=orthogonalEdgeStyle;rounded=0;sketch=1;hachureGap=4;jiggle=2;curveFitting=1;orthogonalLoop=1;jettySize=auto;html=1;exitX=0.5;exitY=1;exitDx=0;exitDy=0;strokeColor=#457B9D;fontFamily=Comic Sans MS;fontSize=11;fontColor=none;startArrow=classic;startFill=1;fillColor=#A8DADC;" edge="1" parent="1" source="7bCZedMBDCGuFrCVrtYH-1" target="7bCZedMBDCGuFrCVrtYH-2">
          <mxGeometry relative="1" as="geometry" />
        </mxCell>
        <mxCell id="7bCZedMBDCGuFrCVrtYH-1" value="&lt;font style=&quot;font-size: 18px;&quot;&gt;Handler&lt;/font&gt;" style="rounded=1;whiteSpace=wrap;html=1;shadow=0;labelBackgroundColor=none;sketch=1;curveFitting=1;jiggle=2;strokeWidth=1;fontFamily=Comic Sans MS;" parent="1" vertex="1">
          <mxGeometry x="160" y="390" width="440" height="50" as="geometry" />
        </mxCell>
        <mxCell id="7bCZedMBDCGuFrCVrtYH-2" value="" style="rounded=1;whiteSpace=wrap;html=1;shadow=0;labelBackgroundColor=none;sketch=1;curveFitting=1;jiggle=2;strokeWidth=1;fontFamily=Comic Sans MS;" parent="1" vertex="1">
          <mxGeometry x="160" y="500" width="440" height="170" as="geometry" />
        </mxCell>
        <mxCell id="_8QWbkuz8nYEIBeXIv_E-1" value="&lt;font style=&quot;font-size: 18px;&quot;&gt;JWT&lt;/font&gt;" style="rounded=1;whiteSpace=wrap;html=1;shadow=0;labelBackgroundColor=none;sketch=1;curveFitting=1;jiggle=2;strokeWidth=1;fontFamily=Comic Sans MS;" vertex="1" parent="1">
          <mxGeometry x="440" y="310" width="160" height="40" as="geometry" />
        </mxCell>
        <mxCell id="_8QWbkuz8nYEIBeXIv_E-6" style="edgeStyle=orthogonalEdgeStyle;rounded=0;sketch=1;hachureGap=4;jiggle=2;curveFitting=1;orthogonalLoop=1;jettySize=auto;html=1;exitX=1;exitY=0.5;exitDx=0;exitDy=0;strokeColor=#457B9D;fontFamily=Comic Sans MS;fontSize=18;fontColor=#1D3557;fillColor=#A8DADC;startArrow=classic;startFill=1;" edge="1" parent="1" source="_8QWbkuz8nYEIBeXIv_E-5" target="_8QWbkuz8nYEIBeXIv_E-1">
          <mxGeometry relative="1" as="geometry" />
        </mxCell>
        <mxCell id="_8QWbkuz8nYEIBeXIv_E-7" value="&lt;font style=&quot;font-size: 11px;&quot;&gt;鉴权&lt;/font&gt;" style="edgeLabel;html=1;align=center;verticalAlign=middle;resizable=0;points=[];fontSize=18;fontFamily=Comic Sans MS;fontColor=#1D3557;labelBackgroundColor=none;" vertex="1" connectable="0" parent="_8QWbkuz8nYEIBeXIv_E-6">
          <mxGeometry x="0.4064" relative="1" as="geometry">
            <mxPoint x="-25" y="-20" as="offset" />
          </mxGeometry>
        </mxCell>
        <mxCell id="_8QWbkuz8nYEIBeXIv_E-9" style="edgeStyle=orthogonalEdgeStyle;rounded=0;sketch=1;hachureGap=4;jiggle=2;curveFitting=1;orthogonalLoop=1;jettySize=auto;html=1;exitX=0.5;exitY=1;exitDx=0;exitDy=0;strokeColor=#457B9D;fontFamily=Comic Sans MS;fontSize=11;fontColor=#1D3557;startArrow=classic;startFill=1;fillColor=#A8DADC;" edge="1" parent="1" source="_8QWbkuz8nYEIBeXIv_E-5">
          <mxGeometry relative="1" as="geometry">
            <mxPoint x="240" y="390" as="targetPoint" />
            <Array as="points" />
          </mxGeometry>
        </mxCell>
        <mxCell id="_8QWbkuz8nYEIBeXIv_E-10" value="Text" style="edgeLabel;html=1;align=center;verticalAlign=middle;resizable=0;points=[];fontSize=11;fontFamily=Comic Sans MS;fontColor=none;noLabel=1;labelBackgroundColor=none;" vertex="1" connectable="0" parent="_8QWbkuz8nYEIBeXIv_E-9">
          <mxGeometry x="-0.0571" relative="1" as="geometry">
            <mxPoint x="20" as="offset" />
          </mxGeometry>
        </mxCell>
        <mxCell id="_8QWbkuz8nYEIBeXIv_E-5" value="Route" style="rounded=1;whiteSpace=wrap;html=1;sketch=1;hachureGap=4;jiggle=2;curveFitting=1;strokeWidth=1;fontFamily=Comic Sans MS;fontSize=18;" vertex="1" parent="1">
          <mxGeometry x="160" y="310" width="160" height="40" as="geometry" />
        </mxCell>
        <mxCell id="_8QWbkuz8nYEIBeXIv_E-12" value="Service" style="text;html=1;strokeColor=none;fillColor=none;align=center;verticalAlign=middle;whiteSpace=wrap;rounded=0;labelBackgroundColor=none;sketch=1;hachureGap=4;jiggle=2;curveFitting=1;strokeWidth=1;fontFamily=Comic Sans MS;fontSize=11;fontColor=none;" vertex="1" parent="1">
          <mxGeometry x="350" y="510" width="60" height="30" as="geometry" />
        </mxCell>
        <mxCell id="_8QWbkuz8nYEIBeXIv_E-13" value="user_service" style="rounded=1;whiteSpace=wrap;html=1;labelBackgroundColor=none;sketch=1;hachureGap=4;jiggle=2;curveFitting=1;strokeWidth=1;fontFamily=Comic Sans MS;fontSize=11;" vertex="1" parent="1">
          <mxGeometry x="180" y="550" width="120" height="30" as="geometry" />
        </mxCell>
        <mxCell id="_8QWbkuz8nYEIBeXIv_E-14" value="relation_service" style="rounded=1;whiteSpace=wrap;html=1;labelBackgroundColor=none;sketch=1;hachureGap=4;jiggle=2;curveFitting=1;strokeWidth=1;fontFamily=Comic Sans MS;fontSize=11;" vertex="1" parent="1">
          <mxGeometry x="320" y="550" width="120" height="30" as="geometry" />
        </mxCell>
        <mxCell id="_8QWbkuz8nYEIBeXIv_E-15" value="publish_service" style="rounded=1;whiteSpace=wrap;html=1;labelBackgroundColor=none;sketch=1;hachureGap=4;jiggle=2;curveFitting=1;strokeWidth=1;fontFamily=Comic Sans MS;fontSize=11;" vertex="1" parent="1">
          <mxGeometry x="460" y="550" width="120" height="30" as="geometry" />
        </mxCell>
        <mxCell id="_8QWbkuz8nYEIBeXIv_E-16" value="message_service" style="rounded=1;whiteSpace=wrap;html=1;labelBackgroundColor=none;sketch=1;hachureGap=4;jiggle=2;curveFitting=1;strokeWidth=1;fontFamily=Comic Sans MS;fontSize=11;" vertex="1" parent="1">
          <mxGeometry x="180" y="610" width="120" height="30" as="geometry" />
        </mxCell>
        <mxCell id="_8QWbkuz8nYEIBeXIv_E-17" value="favorite_service" style="rounded=1;whiteSpace=wrap;html=1;labelBackgroundColor=none;sketch=1;hachureGap=4;jiggle=2;curveFitting=1;strokeWidth=1;fontFamily=Comic Sans MS;fontSize=11;" vertex="1" parent="1">
          <mxGeometry x="320" y="610" width="120" height="30" as="geometry" />
        </mxCell>
        <mxCell id="_8QWbkuz8nYEIBeXIv_E-18" value="comment_service" style="rounded=1;whiteSpace=wrap;html=1;labelBackgroundColor=none;sketch=1;hachureGap=4;jiggle=2;curveFitting=1;strokeWidth=1;fontFamily=Comic Sans MS;fontSize=11;" vertex="1" parent="1">
          <mxGeometry x="460" y="610" width="120" height="30" as="geometry" />
        </mxCell>
      </root>
    </mxGraphModel>
  </diagram>
</mxfile>
